<svg width="181" height="215" viewBox="0 0 181 215" fill="none" xmlns="http://www.w3.org/2000/svg">
<path d="M10.3087 95.8764C4.44409 95.0606 1.80203 93.0281 0.67337 88.554C0.566761 88.1322 0.328054 87.6281 0.461316 87.2805C1.64097 84.1946 0.1241 81.1887 0.251567 78.1411C0.385987 74.9289 0.474053 71.7156 0.58182 68.5023C0.684953 65.4349 0.807795 62.3688 0.881958 59.3014C0.935263 57.1206 1.05693 54.9988 3.49503 54.0475C2.41735 51.1748 2.82641 48.7344 5.15443 47.002C9.72007 43.6056 13.8755 44.1259 17.3403 49.2582C17.4701 49.0705 17.5987 48.8816 17.7285 48.6938C17.7691 47.9418 17.8594 47.1897 17.8421 46.4388C17.6207 36.7235 17.4979 27.0036 17.0576 17.2975C16.9648 15.2499 15.9972 13.0725 14.9045 11.2764C12.974 8.10248 13.0817 4.80455 15.7157 2.11383C17.842 -0.0589051 22.4193 -0.582679 24.8678 1.06976C25.0428 1.18796 25.2525 1.31311 25.3452 1.48808C27.6941 5.91815 30.5586 10.1709 30.6085 15.4527C30.656 20.4865 30.6189 25.5203 30.6189 30.4602C38.0711 30.0014 44.9671 29.5761 51.8631 29.1485C52.4436 29.1126 53.1748 29.2678 53.5792 28.977C56.5736 26.8216 59.9966 27.3176 63.3212 27.3141C81.9569 27.2921 100.594 27.2515 119.23 27.3709C121.54 27.386 123.825 28.4381 126.156 28.7904C128.666 29.1705 131.21 29.3524 133.747 29.5181C138.764 29.8461 143.788 30.1045 149.063 30.4058C149.203 25.6756 149.46 20.6812 149.469 15.6868C149.48 10.2694 152.206 5.87875 154.844 1.56456C156.036 -0.385685 158.793 -0.106416 160.948 0.270192C165.913 1.13813 168.067 7.09317 165.207 11.2393C164.137 12.7898 163.173 14.7667 163.097 16.5872C162.66 26.9526 162.506 37.3296 162.261 47.7031C162.254 47.9881 162.317 48.2755 162.407 49.1214C163.188 48.4389 163.774 48.0554 164.194 47.5374C166.596 44.5801 169.8 44.0598 173.624 46.0564C176.665 47.644 177.699 50.213 176.674 53.9965C178.969 54.9421 179.145 57.0256 179.228 59.1983C179.489 65.9842 179.793 72.7678 180.078 79.5525C180.084 79.6985 180.14 79.8944 180.07 79.9824C178.34 82.1424 179.574 84.4496 179.652 86.7231C179.789 90.692 176.833 94.3295 172.857 95.3295C171.875 95.5763 170.864 95.7096 169.621 95.9402C169.621 98.6008 169.638 101.29 169.617 103.98C169.569 110.337 169.462 116.695 169.483 123.051C169.486 124.049 170.102 125.031 170.317 126.046C170.737 128.018 171.236 129.995 171.388 131.995C171.495 133.388 171.857 134.15 173.021 135.121C174.803 136.608 176.338 138.614 177.397 140.695C179.519 144.86 180.096 149.487 180.108 154.103C180.154 173.543 180.073 192.983 180.099 212.423C180.101 214.05 179.634 214.543 177.991 214.542C119.38 214.504 60.7695 214.506 2.1601 214.538C0.585296 214.539 0.00242723 214.166 0.00590361 212.471C0.0441438 192.885 -0.0323394 173.299 0.0174887 153.712C0.0290766 149.013 0.862255 144.419 2.90637 140.113C3.99447 137.822 5.40472 135.866 7.70724 134.609C8.18814 134.346 8.59604 133.52 8.62617 132.932C8.76754 130.186 8.37007 127.346 10.5185 125.072C10.712 124.867 10.6286 124.373 10.6262 124.014C10.5764 114.879 10.5208 105.745 10.4594 96.61C10.4617 96.4037 10.3771 96.1939 10.3087 95.8764ZM174.44 175.89C118.074 175.89 61.9341 175.89 5.76164 175.89C5.76164 186.707 5.76164 197.552 5.76164 208.4C62.0605 208.4 118.209 208.4 174.44 208.4C174.44 197.46 174.44 186.667 174.44 175.89ZM50.8839 171.803C77.1236 172.368 103.143 172.416 129.292 171.794C129.292 170.643 129.295 169.848 129.292 169.052C129.259 159.702 129.239 150.351 129.187 141.001C129.114 127.638 129.031 114.273 128.925 100.91C128.887 96.0792 126.012 92.648 121.369 91.8693C119.212 91.5078 117.036 91.261 114.864 90.9875C108.712 90.2123 102.554 89.4834 96.4129 88.6375C95.728 88.5424 94.6422 87.875 94.575 87.3639C94.2645 85.0174 92.8971 84.5481 90.8773 84.759C90.0106 84.8494 89.1217 84.8297 88.2503 84.7625C86.8459 84.6535 85.8922 85.2271 85.7995 86.6223C85.6917 88.2423 84.7693 88.5691 83.4043 88.7371C75.441 89.7151 67.4824 90.7302 59.5273 91.7789C54.074 92.4974 51.2362 95.7235 51.1968 101.198C51.082 116.75 50.9685 132.302 50.8897 147.854C50.8503 155.735 50.8839 163.615 50.8839 171.803ZM88.8367 81.745C88.8367 72.857 88.8367 64.2113 88.8367 55.3766C87.8204 55.3766 86.9571 55.3766 86.0938 55.3766C74.6229 55.3766 63.152 55.438 51.6811 55.3256C49.2987 55.3025 46.9231 54.628 44.2822 54.212C44.222 54.4403 43.8882 55.1819 43.8488 55.9386C43.5012 62.6492 43.12 69.3598 42.9276 76.075C42.8117 80.0856 45.4086 82.6708 49.4087 82.8099C51.0113 82.8655 52.6198 82.7241 54.2258 82.6801C65.6886 82.3695 77.1503 82.0613 88.8367 81.745ZM91.2365 81.636C91.7569 81.6928 92.0408 81.7438 92.3258 81.7519C104.957 82.1134 117.586 82.4843 130.218 82.8226C134.455 82.9362 137.329 80.1725 137.199 75.8919C137.001 69.3239 136.633 62.7593 136.281 56.197C136.234 55.3175 135.855 54.4554 135.775 54.146C133.341 54.6002 131.251 55.3106 129.153 55.3303C117.393 55.438 105.631 55.3789 93.8693 55.3778C93.0234 55.3778 92.1763 55.3778 91.2365 55.3778C91.2365 64.2796 91.2365 72.8709 91.2365 81.636ZM41.4455 49.534C43.2613 49.2547 44.7469 48.8283 46.2337 48.826C74.5082 48.775 102.783 48.7611 131.057 48.7889C133.56 48.7912 136.062 49.1411 139.11 49.3706C139.548 48.3601 140.681 46.9197 140.716 45.4527C140.828 40.7306 139.015 38.9959 134.294 38.887C110.413 38.3331 86.5353 37.3423 62.6422 38.4038C56.9502 38.6564 51.2489 38.7097 45.5546 38.8997C41.2219 39.0446 39.6494 40.8523 39.238 45.061C39.0132 47.3473 40.8035 48.1539 41.4455 49.534ZM170.304 50.468C170.233 50.5757 170.162 50.6847 170.09 50.7924C160.677 51.1319 151.264 51.4552 141.853 51.8423C141.077 51.8736 139.725 52.2432 139.669 52.6117C139.527 53.5457 139.688 54.7671 140.222 55.5261C145.141 62.5113 150.172 69.4189 155.157 76.3566C156.399 78.0843 157.598 79.8434 159.043 81.9095C153.753 81.9095 148.94 81.8064 144.133 81.9593C142.127 82.0231 140.139 82.6338 138.142 82.9953C138.173 83.3348 138.205 83.6755 138.235 84.015C138.932 84.015 139.642 84.0938 140.325 83.9988C141.89 83.781 143.44 83.2676 145 83.2491C149.09 83.2004 153.183 83.38 157.275 83.4148C161.412 83.4507 165.55 83.4229 168.97 83.4229C169.354 84.9096 169.476 86.0348 169.929 87.0059C171.216 89.7719 171.135 90.4359 168.799 92.1915C171.212 92.4001 173.316 91.918 174.707 89.9875C176.607 87.3477 176.08 84.6176 174.795 82.5271C175.191 80.9118 175.72 79.7692 175.709 78.6324C175.648 71.9103 175.524 65.1858 175.259 58.4683C175.213 57.277 174.409 56.1148 173.955 54.9397C174.47 52.176 173.978 50.067 171.785 48.8178C170.265 47.9511 168.646 47.2674 167.245 48.9581C168.315 49.4865 169.309 49.9778 170.304 50.468ZM41.8314 83.5596C35.2645 80.7113 28.2712 82.6303 21.3184 81.6592C21.6985 81.059 21.9743 80.5746 22.2976 80.1238C24.847 76.5605 27.4033 73.0019 29.9607 69.4455C33.2424 64.881 36.5774 60.3525 39.7664 55.7242C40.3389 54.8934 40.544 53.6257 40.4385 52.6106C40.4026 52.2629 38.9078 51.8921 38.0595 51.8365C35.144 51.6441 32.2204 51.5804 29.3002 51.4784C22.8538 51.2525 16.4063 51.0323 9.95878 50.811C9.90664 50.7009 9.85333 50.5896 9.80119 50.4796C10.8314 49.9824 11.8615 49.4853 12.9299 48.9696C11.4652 47.3728 9.87535 47.9186 8.36776 48.7634C6.26571 49.9396 5.757 51.9617 6.32365 55.1657C5.67588 56.1217 4.89717 57.1461 4.85777 58.196C4.60863 64.9135 4.47768 71.6368 4.4209 78.359C4.41047 79.6313 4.9076 80.9083 5.26915 82.6581C3.85542 84.7636 3.55412 87.4926 5.48931 90.0848C6.87754 91.9435 8.93441 92.4418 11.2879 92.0385C9.23221 91.1544 8.89154 89.7476 9.7757 87.9132C10.0283 87.3883 10.3841 86.8888 10.515 86.3361C10.7108 85.5041 10.7502 84.6361 10.9055 83.3962C20.8885 84.0996 31.3432 82.2861 41.8314 83.5596ZM171.152 173.103C170.93 170.41 170.667 168.167 170.585 165.919C170.508 163.834 169.503 162.781 167.476 162.783C156.513 162.797 145.548 162.794 134.587 162.969C133.661 162.984 132.192 164.102 131.947 164.979C131.21 167.62 130.954 170.395 130.513 173.104C144.068 173.103 157.409 173.103 171.152 173.103ZM8.97381 173.073C22.6499 173.073 36.0328 173.073 49.549 173.073C49.2175 170.74 48.8537 168.372 48.5501 165.995C48.2708 163.811 47.0796 162.819 44.8779 162.844C41.303 162.886 37.7269 162.844 34.1509 162.833C27.219 162.809 20.2871 162.772 13.3552 162.762C11.7874 162.76 10.0144 162.827 9.70153 164.752C9.27394 167.38 9.21715 170.069 8.97381 173.073ZM27.4357 49.0774C27.489 48.6741 27.5609 48.3937 27.5597 48.1133C27.5157 37.5984 27.5319 27.0835 27.3847 16.5698C27.3233 12.171 25.8134 8.12681 23.3336 4.50674C22.8898 3.85897 21.8874 3.26451 21.1168 3.23091C18.0263 3.09301 16.1699 6.72815 17.9174 9.58341C19.498 12.1664 20.1434 14.871 20.1573 17.8827C20.2025 27.5934 20.3856 37.3041 20.5247 47.0136C20.5328 47.5663 20.622 48.1191 20.6741 48.6718C21.1632 47.8896 21.1666 47.1202 21.162 46.3519C21.1145 37.1511 21.0044 27.9503 21.0484 18.7506C21.0647 15.3218 20.6058 12.0957 18.951 9.0411C18.5617 8.32265 18.7262 7.30407 18.6358 6.42339C18.8583 6.39442 19.0796 6.36544 19.3021 6.33763C21.6278 9.35166 22.6522 12.8443 22.68 16.6254C22.7553 26.6293 22.7553 36.6331 22.7924 46.637C22.7959 47.4053 22.8596 48.1747 22.9013 49.0797C24.497 49.0774 25.8621 49.0774 27.4357 49.0774ZM158.929 48.7054C159.129 48.6904 159.328 48.6753 159.529 48.6602C159.556 48.2431 159.6 47.8259 159.605 47.4076C159.739 37.3319 159.746 27.2515 160.084 17.1816C160.166 14.747 161.324 12.3448 162.025 9.93916C162.225 9.25084 162.667 8.62277 162.806 7.9275C163.155 6.18236 161.827 3.81842 160.242 3.31318C158.31 2.6967 156.955 3.45803 156.224 5.27154C155.114 8.02715 153.267 10.7828 153.158 13.594C152.702 25.3279 152.78 37.0827 152.668 48.8306C152.668 48.8839 152.756 48.9395 152.785 48.972C154.281 48.972 155.749 48.972 157.342 48.972C157.342 47.6405 157.34 46.5489 157.342 45.4573C157.371 35.8173 157.399 26.1785 157.431 16.5385C157.444 12.7249 158.589 9.3111 161.207 6.37124C161.383 7.4072 161.246 8.37479 161.039 9.32616C160.411 12.2081 159.29 15.0691 159.199 17.965C158.905 27.2318 158.99 36.5103 158.931 45.7841C158.923 46.7598 158.929 47.7332 158.929 48.7054ZM55.5724 34.6643C56.4449 33.1938 58.2561 33.0293 60.2574 33.0339C79.9059 33.0722 99.5544 33.0768 119.203 33.0293C121.467 33.0235 123.568 33.1278 124.65 34.6597C125.606 34.253 126.246 33.7327 126.865 33.757C130.656 33.9053 134.454 34.0757 138.23 34.4361C142.314 34.8254 146.681 34.0293 150.17 37.2183C148.735 34.1255 147.286 33.2112 144.016 33.0525C138.182 32.7674 132.348 32.48 126.516 32.1555C125.891 32.1208 125.283 31.8276 124.665 31.6654C123.492 31.3583 122.315 30.7986 121.139 30.7951C100.469 30.7418 79.7969 30.7546 59.1264 30.7696C58.2596 30.7708 57.3824 30.8878 56.5284 31.0512C54.6465 31.4128 52.7947 32.0524 50.9001 32.1984C45.733 32.5982 40.5498 32.7755 35.3757 33.0907C32.5008 33.2657 30.7974 34.6342 30.182 36.7316C31.8484 36.1545 33.7511 35.0827 35.7419 34.8857C41.5498 34.3097 47.3901 34.0571 53.2223 33.7593C53.8469 33.7292 54.4993 34.2344 55.5724 34.6643ZM6.28077 145.537C6.43605 145.635 6.59249 145.734 6.74777 145.832C7.6609 144.35 8.46162 142.782 9.51265 141.405C10.9565 139.513 12.7283 138.074 15.3194 137.952C24.0694 137.542 32.8206 137.112 41.5637 136.586C43.1095 136.493 44.0945 137.012 44.8002 138.245C45.7238 139.856 46.5894 141.5 47.8154 143.742C47.8154 132.042 47.8154 121.001 47.8154 109.884C47.6636 110.219 47.4631 110.519 47.389 110.848C45.7748 118.023 44.1119 125.189 42.6182 132.391C42.2914 133.968 41.6495 134.297 40.1627 134.374C33.0246 134.744 25.8818 135.128 18.7656 135.779C15.4179 136.085 11.7375 136.175 9.5926 139.51C8.35733 141.433 7.37699 143.521 6.28077 145.537ZM173.433 146.096C172.46 140.223 169.192 136.723 163.648 136.158C155.89 135.369 148.102 134.837 140.315 134.399C138.428 134.293 137.698 133.753 137.322 131.925C135.924 125.148 134.363 118.402 132.85 111.649C132.76 111.247 132.553 110.87 132.355 110.365C132.355 121.405 132.355 132.235 132.355 143.064C133.367 141.779 134.098 140.468 134.733 139.112C135.695 137.059 137.166 136.449 139.468 136.617C147.037 137.17 154.624 137.762 162.205 137.771C167.243 137.777 170.291 140 172.373 144.215C172.66 144.794 173.007 145.344 173.433 146.096ZM43.047 96.2345C39.5347 96.2345 36.3862 96.4477 33.2818 96.1696C30.5807 95.9286 29.3663 97.1754 28.795 99.478C28.4983 100.67 28.0858 101.939 28.219 103.117C28.9213 109.345 29.7707 115.559 30.6015 121.772C30.6618 122.22 30.8762 122.891 31.1971 123.021C33.0987 123.793 35.0513 124.435 36.9876 125.121C35.7755 124.046 34.385 123.397 33.1219 122.556C32.5379 122.168 31.8774 121.444 31.8032 120.808C31.2122 115.761 30.7533 110.7 30.2226 105.323C33.6758 105.494 36.9366 105.611 40.1871 105.875C40.5683 105.906 41.0909 106.69 41.1941 107.197C41.5289 108.85 41.7004 110.537 41.9345 112.212C42.0701 112.195 42.2057 112.178 42.3413 112.161C42.5707 106.95 42.8025 101.738 43.047 96.2345ZM149.848 105.331C149.68 107.316 149.554 108.913 149.407 110.509C149.253 112.18 148.883 113.855 148.948 115.517C149.123 120.013 147.723 123.397 143.077 124.791C143.02 124.808 142.982 124.898 142.675 125.266C144.897 124.503 146.824 123.92 148.671 123.149C149.102 122.969 149.446 122.175 149.526 121.62C150.277 116.352 151.007 111.08 151.647 105.798C151.991 102.954 152.106 100.077 150.4 97.5405C150.037 97.0005 149.369 96.3168 148.824 96.3017C144.981 96.1951 141.135 96.2449 137.063 96.2449C137.312 101.826 137.548 107.113 137.783 112.401C137.906 112.405 138.027 112.41 138.15 112.414C138.453 110.276 138.755 108.138 139.081 105.842C142.677 105.671 146.145 105.506 149.848 105.331ZM12.2532 150.555C16.4724 147.303 16.9451 147.157 22.213 147.112C29.4416 147.052 36.6701 146.97 43.8975 146.885C44.7272 146.876 45.5558 146.789 46.6914 146.72C45.8802 145.328 45.3889 144.162 44.6032 143.251C44.091 142.658 43.1373 142.074 42.4038 142.1C35.0362 142.354 27.6744 142.753 20.3091 143.076C15.0621 143.307 13.1768 144.98 12.2532 150.555ZM167.82 150.794C167.239 145.458 164.973 143.292 160.174 143.087C152.731 142.769 145.29 142.397 137.847 142.076C137.231 142.05 136.3 142.021 136.041 142.376C135.096 143.677 134.374 145.138 133.236 147.114C141.689 147.114 149.503 147.188 157.314 147.082C161.239 147.031 164.909 147.437 167.82 150.794ZM21.6359 130.714C24.001 130.714 25.8493 130.714 27.5852 130.714C27.5852 120.076 27.5852 109.614 27.5852 98.9878C26.0718 98.9878 24.8319 99.0805 23.6128 98.9646C21.9627 98.8082 21.4656 99.4189 21.5282 101.071C21.6695 104.859 21.6255 108.656 21.6325 112.447C21.6441 118.497 21.6359 124.545 21.6359 130.714ZM158.313 130.807C158.313 120.122 158.313 109.659 158.313 99.1454C156.324 99.1454 154.473 99.1454 152.432 99.1454C152.432 109.785 152.432 120.253 152.432 130.807C154.358 130.807 156.163 130.807 158.313 130.807ZM23.2501 149.872C23.2501 149.868 23.2501 149.863 23.2501 149.86C21.5734 149.86 19.8966 149.869 18.2187 149.858C16.8327 149.848 16.0088 150.335 16.0726 151.904C16.134 153.431 16.0679 154.966 16.0355 156.496C16.0019 158.107 16.7296 158.95 18.382 158.948C21.5907 158.946 24.7983 158.938 28.007 158.979C29.4844 158.997 30.1577 158.293 30.1647 156.867C30.1728 155.263 30.1728 153.659 30.1693 152.055C30.1658 150.51 29.3836 149.818 27.8424 149.861C26.314 149.905 24.7821 149.872 23.2501 149.872ZM39.1337 149.86C37.5288 149.86 35.9227 149.89 34.3189 149.852C32.7279 149.812 31.8298 150.342 31.9411 152.132C32.0361 153.657 31.9388 155.195 31.926 156.727C31.9144 158.149 32.6016 158.923 34.0385 158.933C37.3944 158.957 40.7537 159.028 44.1049 158.897C44.7458 158.872 45.8652 158.027 45.8872 157.522C45.9903 155.218 45.7806 152.901 45.6844 150.588C43.7932 150.344 41.9021 150.095 40.0098 149.861C39.7201 149.825 39.4246 149.856 39.1337 149.86ZM140.88 150.038C132.863 150.206 134.236 148.523 134.114 156.931C134.113 157.004 134.119 157.077 134.12 157.149C134.143 158.384 134.725 159.014 136.008 159.004C139.355 158.975 142.704 158.977 146.053 158.968C147.492 158.965 148.195 158.229 148.192 156.807C148.19 155.132 148.336 153.435 148.092 151.795C147.994 151.142 147.079 150.205 146.437 150.117C144.721 149.883 142.951 150.038 140.88 150.038ZM157.165 150.03C156.874 150.03 156.582 150.026 156.291 150.031C149.104 150.177 150.04 148.751 149.95 156.645C149.932 158.257 150.544 159.065 152.268 159.025C155.397 158.95 158.529 158.95 161.658 158.989C163.3 159.01 164.107 158.309 164.086 156.662C164.067 155.061 164.025 153.459 164.048 151.858C164.068 150.556 163.447 150.009 162.187 150.025C160.514 150.044 158.839 150.029 157.165 150.03ZM165.993 124.905C165.993 115.131 165.993 105.436 165.993 95.6644C164.319 95.6644 162.853 95.6644 161.388 95.6644C163.281 96.6285 163.305 98.2427 163.323 99.9693C163.382 105.943 163.396 111.923 163.695 117.888C163.827 120.524 163.628 122.77 161.28 124.362C161.218 124.404 161.272 124.616 161.272 124.905C162.829 124.905 164.383 124.905 165.993 124.905ZM14.0667 95.6667C14.0667 105.501 14.0667 115.181 14.0667 124.83C15.8072 124.83 17.3959 124.83 18.6764 124.83C17.8814 123.299 16.4955 121.845 16.4677 120.365C16.3437 113.868 16.6033 107.362 16.7447 100.86C16.7875 98.9125 16.3182 96.749 18.6845 95.6667C17.1815 95.6667 15.6786 95.6667 14.0667 95.6667ZM36.8196 85.8343C29.0302 85.8343 21.5432 85.8343 13.9566 85.8343C13.9566 86.9143 13.9566 87.8136 13.9566 88.7035C21.5861 88.7035 29.065 88.7035 36.6921 88.7035C36.7385 87.6502 36.7767 86.8042 36.8196 85.8343ZM166.192 85.8378C158.533 85.8378 150.985 85.8378 143.309 85.8378C143.358 86.846 143.402 87.744 143.451 88.7406C151.205 88.7406 158.682 88.7406 166.192 88.7406C166.192 87.7197 166.192 86.8668 166.192 85.8378ZM19.0878 134.946C19.2083 135.047 19.3288 135.148 19.4493 135.25C19.8815 134.726 20.5131 134.268 20.7147 133.666C22.2895 128.958 20.7889 126.958 15.8918 127.138C15.3854 127.157 14.8396 127.141 14.3877 127.326C13.9566 127.503 13.3146 127.908 13.2984 128.238C13.1988 130.331 13.2474 132.431 13.2474 134.529C13.4247 134.526 13.6009 134.522 13.7782 134.518C13.8709 133.916 13.9636 133.315 14.0343 132.863C15.1351 132.989 16.0563 133.18 16.9764 133.177C17.8641 133.175 18.7517 132.973 19.8375 132.834C19.5536 133.635 19.3207 134.29 19.0878 134.946ZM166.325 134.798C167.599 132.23 167.331 128.051 166.051 127.401C164.199 126.462 159.915 127.064 159.342 128.346C158.478 130.278 159.43 134.294 161.041 135.081C160.787 134.301 160.559 133.6 160.357 132.98C162.371 132.98 164.244 132.98 166.14 132.98C166.184 133.407 166.234 133.903 166.325 134.798ZM166.076 94.3573C166.076 92.9343 166.076 91.721 166.076 90.5576C161.77 89.05 159.462 92.3108 156.623 94.3573C159.715 94.3573 162.807 94.3573 166.076 94.3573ZM23.4657 94.3689C23.5224 94.1834 23.5792 93.998 23.636 93.8126C20.5953 92.3607 18.2639 88.9353 14.0725 90.6109C14.0725 91.8728 14.0725 93.0722 14.0725 94.37C17.2893 94.3688 20.3775 94.3689 23.4657 94.3689ZM131.361 93.0443C129.267 89.444 133.557 87.5401 134.347 84.4403C132.281 84.4971 130.602 85.0742 129.845 87.2956C129.235 89.0859 128.006 89.8588 126.033 89.2215C125.386 89.0129 124.614 89.189 124.3 89.189C126.511 90.3965 128.99 91.75 131.361 93.0443ZM48.7517 93.0571C51.1029 91.7395 53.4645 90.4174 55.8922 89.0581C54.5283 89.1972 53.1748 89.3362 51.6441 89.4926C50.9302 88.3582 50.3462 86.9433 49.3357 85.9688C48.4238 85.0892 47.046 84.6929 45.5639 83.9235C46.6728 87.4659 50.6498 89.4834 48.7517 93.0571ZM31.1346 72.2301C29.3999 75.0599 27.9548 77.4169 26.4287 79.9083C28.1773 79.9083 29.6432 79.9083 31.1346 79.9083C31.1346 77.4076 31.1346 75.1109 31.1346 72.2301ZM153.778 79.9998C152.165 77.3879 150.71 75.0332 149.012 72.2822C149.012 75.2198 149.012 77.5571 149.012 79.9998C150.602 79.9998 152.007 79.9998 153.778 79.9998Z" fill="black"/>
<path d="M174.44 175.89C174.44 186.667 174.44 197.459 174.44 208.4C118.209 208.4 62.0605 208.4 5.76166 208.4C5.76166 197.552 5.76166 186.707 5.76166 175.89C61.9342 175.89 118.074 175.89 174.44 175.89ZM168.941 185.912C164.336 194.185 157.1 197.749 148.385 197.789C109.514 197.965 70.6413 197.873 31.7696 197.839C30.0372 197.838 28.2608 197.63 26.5828 197.207C20.0391 195.56 14.412 192.556 11.2451 185.839C11.2451 192.271 11.2451 198.328 11.2451 204.37C63.9064 204.37 116.342 204.37 168.941 204.37C168.941 198.234 168.941 192.217 168.941 185.912Z" fill="white"/>
<path d="M50.8839 171.803C50.8839 163.615 50.8503 155.734 50.8908 147.854C50.9708 132.302 51.0832 116.75 51.1979 101.198C51.2385 95.7235 54.0752 92.4986 59.5285 91.779C67.4824 90.7302 75.4422 89.7151 83.4054 88.7371C84.7704 88.5691 85.6928 88.2423 85.8006 86.6223C85.8933 85.2271 86.847 84.6535 88.2515 84.7625C89.1229 84.8297 90.0117 84.8494 90.8784 84.759C92.8982 84.5481 94.2656 85.0174 94.5762 87.364C94.6434 87.8761 95.728 88.5436 96.414 88.6375C102.556 89.4834 108.713 90.2134 114.865 90.9875C117.036 91.261 119.213 91.5078 121.37 91.8693C126.012 92.6481 128.888 96.0804 128.926 100.91C129.033 114.273 129.115 127.637 129.188 141.001C129.239 150.351 129.26 159.702 129.294 169.052C129.296 169.847 129.294 170.643 129.294 171.794C103.143 172.417 77.1236 172.368 50.8839 171.803ZM58.6431 107.226C58.6431 127.517 58.6431 147.561 58.6431 167.694C60.9978 167.694 63.0767 167.694 65.2193 167.694C65.2193 147.452 65.2193 127.349 65.2193 107.226C62.9202 107.226 60.8147 107.226 58.6431 107.226ZM121.552 167.716C121.552 147.405 121.552 127.364 121.552 107.284C119.265 107.284 117.11 107.284 114.907 107.284C114.907 127.525 114.907 147.626 114.907 167.716C117.144 167.716 119.172 167.716 121.552 167.716ZM98.676 167.797C100.925 167.797 102.992 167.797 105.096 167.797C105.096 147.518 105.096 127.415 105.096 107.143C102.865 107.143 100.8 107.143 98.676 107.143C98.676 127.397 98.676 147.462 98.676 167.797ZM81.3717 167.812C81.3717 147.526 81.3717 127.4 81.3717 107.219C79.1816 107.219 77.1259 107.219 74.9671 107.219C74.9671 127.537 74.9671 147.597 74.9671 167.812C77.1166 167.812 79.1318 167.812 81.3717 167.812ZM88.9746 167.934C88.9746 147.559 88.9746 127.315 88.9746 106.888C88 106.888 87.2839 106.873 86.5677 106.891C82.9847 106.98 82.9836 106.982 82.9836 110.588C82.9859 127.963 82.9917 145.337 82.9929 162.712C82.994 168.44 82.9905 168.44 88.9746 167.934ZM112.96 167.724C112.96 147.501 112.96 127.391 112.96 107.231C110.87 107.231 108.929 107.231 106.983 107.231C106.983 127.463 106.983 147.569 106.983 167.724C109.116 167.724 110.984 167.724 112.96 167.724ZM73.1246 167.705C73.1246 147.479 73.1246 127.382 73.1246 107.241C71.1199 107.241 69.1951 107.241 67.1788 107.241C67.1788 127.488 67.1788 147.584 67.1788 167.705C69.2113 167.705 71.0781 167.705 73.1246 167.705ZM91.1056 107.065C91.1056 127.309 91.1056 147.576 91.1056 168.051C92.2424 168.051 93.3281 167.962 94.3931 168.07C96.4233 168.278 97.1162 167.587 97.1058 165.421C97.0154 147.595 97.0571 129.768 97.0513 111.941C97.0502 106.883 97.0386 106.882 91.9631 106.875C91.758 106.872 91.5529 106.961 91.1056 107.065ZM85.7462 92.1382C83.483 92.4766 81.2512 92.8091 79.0205 93.144C72.3911 94.1406 65.7604 95.1198 59.1356 96.1453C57.1622 96.45 55.8261 97.4675 55.6871 99.4652C57.1286 98.8337 58.4971 97.8545 59.9734 97.6494C68.7803 96.4222 77.6114 95.3654 86.4391 94.2866C86.9675 94.2217 87.5967 94.3422 88.0684 94.589C89.4844 95.3283 90.8043 95.333 92.225 94.5624C92.7313 94.2877 93.4591 94.2819 94.0628 94.3515C100.653 95.1198 107.266 95.7478 113.812 96.7954C117.374 97.3655 121.372 96.6702 124.488 99.9913C124.229 97.5938 123.123 96.508 121.151 96.209C114.459 95.1928 107.735 94.3422 101.093 93.0664C98.2866 92.5275 94.4869 93.8659 93.0234 89.0118C92.6062 91.3942 92.3038 93.151 90.0615 93.1683C87.7729 93.1857 87.6361 91.261 86.9316 89.2771C86.4577 90.4209 86.1413 91.1845 85.7462 92.1382Z" fill="white"/>
<path d="M88.8367 81.7449C77.1502 82.0601 65.6886 82.3695 54.227 82.6801C52.6209 82.7241 51.0125 82.8655 49.4099 82.8099C45.4097 82.6708 42.8129 80.0855 42.9288 76.075C43.1223 69.3598 43.5024 62.6492 43.85 55.9386C43.8894 55.1819 44.2231 54.4403 44.2834 54.212C46.9243 54.628 49.2998 55.3024 51.6823 55.3256C63.152 55.4392 74.6241 55.3766 86.095 55.3766C86.9583 55.3766 87.8204 55.3766 88.8378 55.3766C88.8367 64.2112 88.8367 72.857 88.8367 81.7449Z" fill="white"/>
<path d="M91.2366 81.636C91.2366 72.8709 91.2366 64.2796 91.2366 55.3766C92.1775 55.3766 93.0234 55.3766 93.8693 55.3766C105.631 55.3789 117.393 55.4369 129.153 55.3291C131.251 55.3094 133.341 54.6002 135.775 54.1448C135.855 54.4542 136.234 55.3164 136.281 56.1959C136.633 62.7581 137.001 69.3227 137.199 75.8907C137.328 80.1713 134.455 82.9351 130.218 82.8215C117.588 82.4831 104.957 82.1123 92.3258 81.7508C92.0408 81.7438 91.7569 81.6928 91.2366 81.636Z" fill="white"/>
<path d="M41.4455 49.534C40.8035 48.155 39.0132 47.3473 39.2369 45.061C39.6482 40.8523 41.2207 39.0446 45.5534 38.8997C51.2489 38.7097 56.949 38.6564 62.641 38.4038C86.5342 37.3423 110.412 38.3331 134.293 38.887C139.014 38.9971 140.827 40.7306 140.715 45.4527C140.68 46.9197 139.547 48.3601 139.109 49.3706C136.061 49.1411 133.559 48.7923 131.056 48.7889C102.782 48.7611 74.507 48.7761 46.2325 48.8259C44.7469 48.8283 43.2613 49.2535 41.4455 49.534Z" fill="white"/>
<path d="M170.304 50.468C169.31 49.9778 168.316 49.4865 167.245 48.9592C168.646 47.2685 170.265 47.9522 171.785 48.819C173.978 50.0682 174.47 52.1772 173.955 54.9409C174.409 56.1159 175.213 57.2782 175.259 58.4694C175.524 65.1869 175.648 71.9103 175.709 78.6336C175.719 79.7704 175.191 80.9129 174.795 82.5283C176.08 84.6188 176.606 87.3489 174.707 89.9886C173.317 91.9192 171.212 92.4001 168.799 92.1926C171.135 90.4371 171.216 89.7731 169.929 87.007C169.477 86.0348 169.354 84.9096 168.97 83.424C165.55 83.424 161.412 83.4519 157.275 83.4159C153.182 83.38 149.09 83.2004 145 83.2502C143.439 83.2688 141.89 83.7821 140.325 84C139.642 84.095 138.932 84.0162 138.235 84.0162C138.204 83.6767 138.172 83.336 138.142 82.9964C140.139 82.6349 142.127 82.0242 144.133 81.9605C148.94 81.8075 153.755 81.9107 159.043 81.9107C157.598 79.8434 156.399 78.0855 155.157 76.3577C150.17 69.4189 145.141 62.5113 140.222 55.5273C139.688 54.7694 139.527 53.5469 139.669 52.6129C139.726 52.2432 141.077 51.8747 141.853 51.8434C151.263 51.4564 160.677 51.1331 170.09 50.7936C170.162 50.6847 170.233 50.5757 170.304 50.468ZM172.276 77.7286C171.674 79.0484 171.471 80.5421 170.637 81.1122C168.608 82.5005 165.556 80.6638 165.492 78.1666C165.344 72.3274 165.296 66.486 165.149 60.6468C165.041 56.3871 165.006 56.379 169.038 55.1866C168.737 54.7624 168.448 54.3557 168.065 53.8146C169.979 54.015 170.616 54.9363 170.675 56.6096C170.866 62.0802 171.155 67.5474 171.456 73.0134C171.496 73.7319 171.828 74.4341 172.025 75.1445C172.614 74.8188 172.71 74.6242 172.704 74.4341C172.507 68.6703 172.189 62.9076 172.133 57.1426C172.091 52.8551 170.226 52.3603 166.983 52.4217C160.487 52.5434 153.993 52.7798 147.498 52.9883C145.349 53.0579 143.2 53.1853 140.937 53.2919C141.098 53.6952 141.14 53.9119 141.256 54.0741C147.732 63.0768 154.207 72.0806 160.719 81.0555C161.062 81.5283 161.731 82.0404 162.261 82.0543C165.594 82.1459 168.929 82.1007 172.276 82.1007C172.276 80.6244 172.276 79.2941 172.276 77.7286Z" fill="white"/>
<path d="M41.8314 83.5596C31.3431 82.2861 20.8885 84.0996 10.9055 83.3928C10.7514 84.6327 10.712 85.5018 10.515 86.3326C10.384 86.8854 10.0283 87.3848 9.77566 87.9097C8.89266 89.7441 9.23218 91.1509 11.2879 92.035C8.93437 92.4383 6.87635 91.94 5.48927 90.0813C3.55409 87.4891 3.85539 84.759 5.26912 82.6546C4.90873 80.9048 4.41044 79.6278 4.42087 78.3555C4.47765 71.6333 4.6086 64.91 4.85774 58.1925C4.89714 57.1415 5.67585 56.1182 6.32361 55.1622C5.75696 51.9593 6.26568 49.9372 8.36773 48.7599C9.87532 47.9163 11.4652 47.3694 12.9299 48.9662C11.8615 49.4818 10.8313 49.979 9.80115 50.4761C9.8533 50.5862 9.9066 50.6974 9.95875 50.8075C16.4063 51.03 22.8526 51.2501 29.3002 51.475C32.2203 51.5769 35.144 51.6407 38.0595 51.833C38.9077 51.8886 40.4026 52.2606 40.4385 52.6071C40.5439 53.6234 40.3388 54.8899 39.7664 55.7208C36.5774 60.3502 33.2424 64.8776 29.9607 69.442C27.4032 72.9995 24.8469 76.557 22.2976 80.1203C21.9754 80.5711 21.6996 81.0555 21.3184 81.6557C28.2712 82.6303 35.2645 80.7102 41.8314 83.5596ZM7.79065 82.1216C10.9403 82.1216 13.9195 82.0764 16.8964 82.1424C18.1885 82.1714 18.9985 81.7438 19.7737 80.6522C24.7994 73.5743 29.9201 66.5648 34.9968 59.5228C36.4267 57.5389 37.815 55.5238 39.5404 53.0683C37.3851 53.0683 35.7268 53.1089 34.0709 53.0613C26.993 52.8562 19.9163 52.5804 12.8372 52.4194C9.136 52.3359 8.12321 53.3534 7.98184 56.9734C7.81382 61.2772 7.66202 65.5821 7.53687 69.887C7.48704 71.5881 7.52876 73.2916 7.52876 74.9938C7.74314 75.0321 7.95635 75.0715 8.17072 75.1097C8.34918 74.302 8.64468 73.5001 8.68872 72.6855C8.97957 67.2925 9.25072 61.8971 9.44888 56.4995C9.51145 54.8053 10.2635 53.9826 12.0666 53.8319C11.668 54.3824 11.3597 54.8076 11.0364 55.2538C12.8789 55.905 15.0783 55.7613 14.9902 58.5899C14.7898 65.0108 14.6484 71.4363 14.6391 77.8607C14.6356 80.0473 13.7944 81.0311 11.6807 81.3336C9.57055 81.6349 8.54965 80.8087 8.33064 78.768C8.29935 78.4783 8.14408 78.2014 8.04558 77.9198C7.96099 77.9395 7.87524 77.958 7.79065 77.9777C7.79065 79.2779 7.79065 80.5792 7.79065 82.1216Z" fill="white"/>
<path d="M171.152 173.103C157.411 173.103 144.068 173.103 130.512 173.103C130.953 170.394 131.209 167.618 131.946 164.978C132.191 164.102 133.661 162.983 134.586 162.968C145.547 162.793 156.511 162.796 167.475 162.782C169.501 162.779 170.507 163.833 170.584 165.917C170.667 168.168 170.93 170.41 171.152 173.103Z" fill="white"/>
<path d="M8.97382 173.073C9.21716 170.069 9.27395 167.38 9.70154 164.75C10.0144 162.826 11.7885 162.758 13.3552 162.761C20.2871 162.771 27.219 162.808 34.1509 162.831C37.727 162.844 41.303 162.885 44.8779 162.843C47.0807 162.818 48.272 163.81 48.5501 165.994C48.8537 168.371 49.2175 170.739 49.549 173.072C36.034 173.073 22.6511 173.073 8.97382 173.073Z" fill="white"/>
<path d="M27.4357 49.0774C25.8621 49.0774 24.4982 49.0774 22.9014 49.0774C22.8596 48.1724 22.7959 47.403 22.7924 46.6347C22.7542 36.6308 22.7542 26.627 22.68 16.6231C22.6522 12.842 21.6278 9.35051 19.3021 6.33533C19.0797 6.3643 18.8583 6.39327 18.6358 6.42108C18.7262 7.30176 18.5617 8.32034 18.951 9.03879C20.6058 12.0934 21.0647 15.3195 21.0484 18.7483C21.0032 27.948 21.1133 37.1488 21.162 46.3496C21.1655 47.1191 21.162 47.8885 20.6742 48.6695C20.622 48.1168 20.5328 47.5652 20.5247 47.0113C20.3856 37.3006 20.2025 27.5911 20.1573 17.8804C20.1434 14.8675 19.4991 12.1641 17.9174 9.58111C16.1699 6.72584 18.0275 3.0907 21.1168 3.2286C21.8874 3.26336 22.8898 3.85783 23.3336 4.50443C25.8134 8.1245 27.3233 12.1687 27.3847 16.5675C27.5319 27.0812 27.5168 37.5961 27.5597 48.111C27.5597 48.3937 27.489 48.673 27.4357 49.0774Z" fill="white"/>
<path d="M158.929 48.7054C158.929 47.732 158.923 46.7598 158.93 45.7864C158.989 36.5126 158.905 27.2341 159.197 17.9673C159.289 15.0715 160.411 12.2104 161.038 9.32847C161.245 8.37711 161.382 7.40951 161.206 6.37355C158.588 9.31341 157.443 12.7272 157.43 16.5408C157.398 26.1808 157.37 35.8196 157.341 45.4597C157.338 46.5512 157.341 47.6428 157.341 48.9743C155.749 48.9743 154.281 48.9743 152.784 48.9743C152.755 48.9407 152.667 48.8862 152.667 48.8329C152.779 37.085 152.701 25.3303 153.157 13.5963C153.266 10.7851 155.113 8.02947 156.223 5.27386C156.953 3.46151 158.307 2.70018 160.24 3.3155C161.824 3.82073 163.154 6.18467 162.805 7.92981C162.666 8.62393 162.224 9.252 162.024 9.94148C161.323 12.3471 160.165 14.7505 160.083 17.1839C159.744 27.2527 159.737 37.333 159.604 47.4099C159.598 47.8271 159.554 48.2442 159.528 48.6626C159.328 48.6765 159.128 48.6904 158.929 48.7054Z" fill="white"/>
<path d="M55.5724 34.6643C54.4982 34.2344 53.8469 33.7292 53.2223 33.7605C47.3901 34.0583 41.5498 34.3109 35.742 34.8868C33.7523 35.0838 31.8484 36.1557 30.1821 36.7328C30.7974 34.6342 32.5008 33.2668 35.3758 33.0918C40.5498 32.7767 45.7331 32.5982 50.9001 32.1996C52.7936 32.0536 54.6465 31.4139 56.5284 31.0524C57.3813 30.8878 58.2596 30.7708 59.1264 30.7708C79.797 30.7546 100.469 30.743 121.139 30.7963C122.315 30.7998 123.492 31.3594 124.665 31.6665C125.284 31.8288 125.893 32.1219 126.516 32.1567C132.348 32.4812 138.182 32.7685 144.016 33.0536C147.286 33.2135 148.735 34.1266 150.17 37.2195C146.68 34.0305 142.314 34.8266 138.23 34.4372C134.454 34.078 130.658 33.9076 126.865 33.7582C126.246 33.7338 125.606 34.253 124.65 34.6609C123.568 33.1289 121.467 33.0246 119.203 33.0304C99.5544 33.0779 79.9059 33.0733 60.2574 33.0351C58.2561 33.0293 56.4461 33.1938 55.5724 34.6643Z" fill="white"/>
<path d="M6.28076 145.537C7.37698 143.523 8.35732 141.433 9.59491 139.51C11.7398 136.176 15.4202 136.087 18.7679 135.779C25.8841 135.128 33.0269 134.743 40.165 134.374C41.6518 134.297 42.2937 133.968 42.6205 132.391C44.1142 125.19 45.7759 118.024 47.3913 110.848C47.4654 110.519 47.6659 110.219 47.8177 109.884C47.8177 121 47.8177 132.042 47.8177 143.742C46.5929 141.5 45.7261 139.857 44.8025 138.245C44.0957 137.012 43.1119 136.493 41.566 136.586C32.8218 137.112 24.0717 137.542 15.3217 137.952C12.7306 138.074 10.9588 139.513 9.51496 141.405C8.46393 142.782 7.66319 144.349 6.75006 145.832C6.59247 145.733 6.43604 145.635 6.28076 145.537Z" fill="white"/>
<path d="M173.433 146.096C173.007 145.343 172.66 144.794 172.374 144.214C170.292 139.999 167.244 137.777 162.206 137.77C154.625 137.761 147.038 137.169 139.469 136.616C137.168 136.448 135.696 137.058 134.734 139.111C134.099 140.466 133.368 141.776 132.356 143.062C132.356 132.232 132.356 121.403 132.356 110.364C132.554 110.869 132.761 111.245 132.851 111.648C134.365 118.402 135.925 125.146 137.323 131.924C137.7 133.753 138.43 134.293 140.316 134.398C148.103 134.836 155.891 135.368 163.65 136.157C169.192 136.723 172.46 140.225 173.433 146.096Z" fill="white"/>
<path d="M43.047 96.2345C42.8025 101.738 42.5707 106.95 42.3401 112.162C42.2045 112.18 42.069 112.196 41.9334 112.213C41.6993 110.539 41.5278 108.851 41.1929 107.198C41.0898 106.69 40.5672 105.906 40.1859 105.876C36.9367 105.613 33.6758 105.496 30.2215 105.324C30.7522 110.701 31.2111 115.763 31.8021 120.809C31.8762 121.445 32.5367 122.169 33.1208 122.558C34.3838 123.398 35.7744 124.046 36.9865 125.122C35.0502 124.436 33.0976 123.793 31.196 123.022C30.875 122.893 30.6606 122.222 30.6004 121.773C29.7695 115.56 28.919 109.346 28.2179 103.118C28.0846 101.939 28.4972 100.672 28.7938 99.4791C29.3663 97.1766 30.5807 95.9298 33.2807 96.1708C36.3862 96.4477 39.5347 96.2345 43.047 96.2345Z" fill="white"/>
<path d="M149.848 105.331C146.145 105.506 142.677 105.671 139.08 105.841C138.755 108.136 138.453 110.274 138.149 112.412C138.026 112.408 137.905 112.403 137.782 112.4C137.547 107.112 137.311 101.825 137.062 96.2438C141.134 96.2438 144.98 96.1939 148.823 96.3006C149.367 96.3156 150.035 96.9993 150.399 97.5393C152.103 100.076 151.99 102.952 151.646 105.797C151.006 111.08 150.276 116.351 149.525 121.619C149.446 122.174 149.101 122.968 148.67 123.147C146.822 123.919 144.896 124.502 142.674 125.265C142.981 124.897 143.018 124.807 143.076 124.789C147.721 123.397 149.121 120.012 148.947 115.516C148.882 113.855 149.252 112.178 149.406 110.507C149.554 108.913 149.68 107.316 149.848 105.331Z" fill="white"/>
<path d="M12.2532 150.555C13.1756 144.981 15.0621 143.308 20.3091 143.078C27.6744 142.754 35.0362 142.356 42.4038 142.101C43.1385 142.075 44.091 142.659 44.6032 143.253C45.3889 144.163 45.8802 145.329 46.6913 146.721C45.5557 146.79 44.7272 146.876 43.8975 146.887C36.6689 146.971 29.4415 147.052 22.213 147.114C16.9451 147.157 16.4735 147.301 12.2532 150.555Z" fill="white"/>
<path d="M167.82 150.794C164.909 147.437 161.239 147.031 157.314 147.084C149.503 147.188 141.69 147.115 133.236 147.115C134.374 145.139 135.096 143.677 136.041 142.378C136.3 142.022 137.231 142.051 137.847 142.078C145.29 142.397 152.731 142.77 160.174 143.088C164.973 143.292 167.239 145.458 167.82 150.794Z" fill="white"/>
<path d="M21.6359 130.714C21.6359 124.545 21.644 118.496 21.6325 112.448C21.6255 108.656 21.6695 104.861 21.5282 101.072C21.4667 99.42 21.9639 98.8093 23.6128 98.9658C24.8319 99.0817 26.0718 98.989 27.5852 98.989C27.5852 109.615 27.5852 120.076 27.5852 130.716C25.8481 130.714 23.9999 130.714 21.6359 130.714ZM24.5816 105.686C25.5434 104.48 26.4994 103.797 26.5504 103.052C26.5898 102.473 25.4553 101.28 24.9223 101.324C24.1714 101.385 23.0578 102.249 22.9152 102.938C22.7878 103.56 23.7554 104.41 24.5816 105.686ZM27.4241 113.01C26.2387 112.161 25.4773 111.199 24.8794 111.291C24.1076 111.41 23.4657 112.373 22.7681 112.973C23.4089 113.65 23.9964 114.789 24.7056 114.871C25.38 114.948 26.1796 113.919 27.4241 113.01ZM24.6071 115.421C23.7403 116.741 22.8457 117.506 22.9025 118.194C22.9535 118.811 24.1308 119.867 24.665 119.784C25.4055 119.669 26.4299 118.735 26.5399 118.029C26.6315 117.436 25.5863 116.668 24.6071 115.421ZM27.5377 108.135C26.1796 107.263 25.3777 106.341 24.6928 106.42C23.9941 106.5 23.4077 107.565 22.7727 108.199C23.3996 108.787 24.008 109.818 24.6569 109.845C25.3939 109.874 26.1668 109.003 27.5377 108.135ZM24.5364 125.224C25.526 124.03 26.5805 123.309 26.5388 122.655C26.4971 121.992 25.4368 121.02 24.7033 120.898C24.1633 120.809 22.9489 121.838 22.9106 122.427C22.8631 123.147 23.7287 123.93 24.5364 125.224ZM27.4774 127.629C26.219 126.71 25.4994 125.781 24.7531 125.761C24.1123 125.742 22.8411 126.863 22.9152 127.295C23.0508 128.083 23.8979 129.188 24.5978 129.311C25.2699 129.43 26.1309 128.471 27.4774 127.629Z" fill="white"/>
<path d="M158.313 130.807C156.163 130.807 154.358 130.807 152.432 130.807C152.432 120.254 152.432 109.785 152.432 99.1454C154.473 99.1454 156.325 99.1454 158.313 99.1454C158.313 109.659 158.313 120.122 158.313 130.807ZM155.271 105.731C156.231 104.504 157.277 103.743 157.223 103.071C157.168 102.393 156.087 101.431 155.334 101.302C154.818 101.214 153.613 102.319 153.588 102.928C153.558 103.667 154.444 104.443 155.271 105.731ZM155.203 124.844C154.401 126.156 153.512 126.968 153.585 127.681C153.651 128.332 154.88 129.444 155.38 129.338C156.136 129.177 157.15 128.174 157.216 127.454C157.275 126.809 156.199 126.061 155.203 124.844ZM155.241 120.716C156.221 119.507 157.182 118.831 157.225 118.102C157.26 117.513 156.153 116.331 155.611 116.365C154.867 116.41 153.736 117.261 153.592 117.94C153.46 118.563 154.417 119.416 155.241 120.716ZM155.398 110.358C154.501 111.627 153.572 112.37 153.589 113.091C153.603 113.724 154.759 114.891 155.268 114.819C156.029 114.711 157.11 113.795 157.223 113.089C157.324 112.452 156.306 111.636 155.398 110.358ZM155.368 105.457C154.475 106.731 153.568 107.464 153.588 108.172C153.604 108.774 154.762 109.878 155.283 109.806C156.036 109.703 157.105 108.812 157.225 108.118C157.328 107.514 156.3 106.716 155.368 105.457ZM158.232 122.67C156.887 121.766 156.105 120.828 155.417 120.892C154.718 120.959 154.11 122.012 153.463 122.632C154.069 123.229 154.649 124.269 155.285 124.304C156.028 124.346 156.82 123.508 158.232 122.67Z" fill="white"/>
<path d="M23.2501 149.872C24.7809 149.872 26.314 149.905 27.8436 149.862C29.3848 149.818 30.167 150.51 30.1705 152.056C30.1739 153.66 30.1739 155.265 30.1658 156.868C30.1589 158.294 29.4856 158.998 28.0081 158.98C24.8006 158.939 21.5919 158.947 18.3832 158.95C16.7308 158.951 16.0019 158.108 16.0366 156.498C16.0691 154.967 16.1352 153.434 16.0737 151.905C16.01 150.336 16.8339 149.848 18.2198 149.859C19.8966 149.87 21.5734 149.861 23.2513 149.861C23.2501 149.863 23.2501 149.867 23.2501 149.872ZM24.8724 156.963C24.9107 156.823 24.9489 156.683 24.9872 156.543C22.8979 155.268 20.8086 153.993 18.3797 152.511C18.6891 154.393 17.4736 156.448 19.9777 156.91C21.5583 157.201 23.2374 156.963 24.8724 156.963Z" fill="white"/>
<path d="M39.1337 149.858C39.4257 149.855 39.7212 149.825 40.0086 149.861C41.9009 150.095 43.792 150.343 45.6832 150.588C45.7805 152.901 45.9891 155.218 45.886 157.522C45.8628 158.027 44.7434 158.872 44.1038 158.897C40.7525 159.028 37.3943 158.956 34.0373 158.933C32.6016 158.924 31.9132 158.149 31.9248 156.727C31.9376 155.195 32.0338 153.657 31.9399 152.132C31.8286 150.342 32.7267 149.812 34.3177 149.852C35.9215 149.89 37.5276 149.86 39.1337 149.858ZM40.8904 156.969C40.9194 156.83 40.9483 156.691 40.9773 156.552C38.8486 155.269 36.7199 153.986 34.4835 152.639C34.1694 155.954 34.4046 156.838 35.7523 156.938C37.4558 157.065 39.1766 156.969 40.8904 156.969Z" fill="white"/>
<path d="M140.88 150.038C142.952 150.038 144.721 149.883 146.436 150.118C147.078 150.206 147.993 151.143 148.09 151.796C148.336 153.435 148.189 155.134 148.191 156.808C148.194 158.231 147.491 158.966 146.052 158.969C142.703 158.977 139.355 158.976 136.007 159.005C134.725 159.016 134.142 158.385 134.119 157.15C134.118 157.077 134.112 157.004 134.113 156.932C134.236 148.522 132.863 150.205 140.88 150.038ZM145.662 152.634C143.336 154.084 141.274 155.368 138.792 156.915C145.703 157.454 145.888 157.337 145.662 152.634Z" fill="white"/>
<path d="M157.165 150.029C158.839 150.028 160.514 150.044 162.188 150.023C163.448 150.008 164.068 150.555 164.049 151.857C164.026 153.458 164.068 155.059 164.088 156.661C164.108 158.308 163.301 159.009 161.659 158.988C158.529 158.948 155.398 158.948 152.269 159.024C150.545 159.065 149.933 158.255 149.951 156.644C150.041 148.75 149.106 150.176 156.292 150.03C156.582 150.026 156.874 150.03 157.165 150.029ZM155.07 156.605C161.892 157.251 162.014 157.172 161.532 152.708C159.313 154.047 157.192 155.326 155.07 156.605Z" fill="white"/>
<path d="M165.993 124.905C164.383 124.905 162.829 124.905 161.27 124.905C161.27 124.616 161.216 124.404 161.279 124.362C163.626 122.769 163.826 120.523 163.694 117.888C163.395 111.923 163.381 105.944 163.322 99.9693C163.304 98.2439 163.281 96.6285 161.386 95.6644C162.852 95.6644 164.318 95.6644 165.991 95.6644C165.993 105.436 165.993 115.131 165.993 124.905Z" fill="white"/>
<path d="M14.0667 95.6667C15.6786 95.6667 17.1816 95.6667 18.6834 95.6667C16.3171 96.749 16.7853 98.9125 16.7435 100.86C16.6022 107.362 16.3426 113.868 16.4666 120.365C16.4944 121.845 17.8803 123.299 18.6752 124.83C17.3948 124.83 15.8061 124.83 14.0656 124.83C14.0667 115.181 14.0667 105.501 14.0667 95.6667Z" fill="white"/>
<path d="M36.8196 85.8343C36.7767 86.8042 36.7385 87.6502 36.6921 88.7035C29.0649 88.7035 21.5861 88.7035 13.9566 88.7035C13.9566 87.8135 13.9566 86.9132 13.9566 85.8343C21.5432 85.8343 29.0302 85.8343 36.8196 85.8343Z" fill="white"/>
<path d="M166.192 85.8378C166.192 86.868 166.192 87.7197 166.192 88.7406C158.682 88.7406 151.205 88.7406 143.451 88.7406C143.402 87.744 143.358 86.846 143.309 85.8378C150.985 85.8378 158.535 85.8378 166.192 85.8378Z" fill="white"/>
<path d="M19.0877 134.946C19.3207 134.29 19.5536 133.635 19.8375 132.834C18.7517 132.973 17.864 133.174 16.9764 133.177C16.0563 133.179 15.1363 132.989 14.0342 132.863C13.9647 133.315 13.872 133.916 13.7781 134.518C13.6008 134.521 13.4247 134.524 13.2474 134.529C13.2474 132.432 13.1987 130.332 13.2984 128.238C13.3146 127.908 13.9554 127.503 14.3877 127.326C14.8396 127.141 15.3854 127.157 15.8918 127.138C20.7888 126.958 22.2895 128.958 20.7147 133.666C20.513 134.267 19.8815 134.725 19.4493 135.25C19.3288 135.148 19.2083 135.047 19.0877 134.946Z" fill="white"/>
<path d="M166.325 134.798C166.234 133.903 166.183 133.407 166.139 132.979C164.243 132.979 162.37 132.979 160.356 132.979C160.558 133.597 160.786 134.3 161.04 135.08C159.429 134.293 158.478 130.276 159.341 128.345C159.914 127.063 164.198 126.46 166.049 127.4C167.332 128.05 167.599 132.23 166.325 134.798Z" fill="white"/>
<path d="M166.076 94.3572C162.808 94.3572 159.715 94.3572 156.623 94.3572C159.462 92.3108 161.77 89.0488 166.076 90.5576C166.076 91.721 166.076 92.9331 166.076 94.3572Z" fill="white"/>
<path d="M23.4657 94.3689C20.3775 94.3689 17.2893 94.3689 14.0725 94.3689C14.0725 93.071 14.0725 91.8717 14.0725 90.6097C18.2639 88.9341 20.5954 92.3607 23.636 93.8115C23.5793 93.9969 23.5225 94.1834 23.4657 94.3689Z" fill="white"/>
<path d="M131.361 93.0443C128.99 91.75 126.513 90.3953 124.3 89.1879C124.613 89.1879 125.385 89.0117 126.033 89.2203C128.005 89.8577 129.235 89.0847 129.845 87.2944C130.602 85.0741 132.281 84.4971 134.348 84.4403C133.557 87.5401 129.267 89.444 131.361 93.0443Z" fill="white"/>
<path d="M48.7517 93.0571C50.6498 89.4834 46.6717 87.4659 45.565 83.9223C47.0471 84.6929 48.4249 85.0892 49.3369 85.9676C50.3473 86.9422 50.9314 88.3582 51.6452 89.4915C53.176 89.3351 54.5294 89.1972 55.8933 89.0569C53.4657 90.4174 51.104 91.7407 48.7517 93.0571Z" fill="white"/>
<path d="M31.1346 72.2301C31.1346 75.1109 31.1346 77.4076 31.1346 79.9083C29.6444 79.9083 28.1773 79.9083 26.4287 79.9083C27.9548 77.4169 29.3999 75.0599 31.1346 72.2301Z" fill="white"/>
<path d="M153.778 79.9998C152.007 79.9998 150.602 79.9998 149.012 79.9998C149.012 77.5582 149.012 75.2198 149.012 72.2823C150.71 75.0332 152.165 77.3879 153.778 79.9998Z" fill="white"/>
<path d="M168.941 185.912C168.941 192.217 168.941 198.235 168.941 204.371C116.342 204.371 63.9064 204.371 11.2451 204.371C11.2451 198.329 11.2451 192.272 11.2451 185.841C14.4109 192.557 20.0391 195.562 26.5828 197.208C28.2608 197.63 30.0384 197.838 31.7696 197.84C70.6413 197.875 109.514 197.966 148.385 197.79C157.1 197.749 164.337 194.184 168.941 185.912Z" fill="black"/>
<path d="M58.6432 107.226C60.8148 107.226 62.9215 107.226 65.2193 107.226C65.2193 127.349 65.2193 147.452 65.2193 167.694C63.0767 167.694 60.9979 167.694 58.6432 167.694C58.6432 147.562 58.6432 127.518 58.6432 107.226Z" fill="black"/>
<path d="M121.552 167.716C119.172 167.716 117.144 167.716 114.907 167.716C114.907 147.626 114.907 127.525 114.907 107.284C117.11 107.284 119.265 107.284 121.552 107.284C121.552 127.364 121.552 147.405 121.552 167.716Z" fill="black"/>
<path d="M98.676 167.797C98.676 147.462 98.676 127.398 98.676 107.143C100.8 107.143 102.865 107.143 105.096 107.143C105.096 127.414 105.096 147.518 105.096 167.797C102.994 167.797 100.925 167.797 98.676 167.797Z" fill="black"/>
<path d="M81.3718 167.812C79.1306 167.812 77.1167 167.812 74.9671 167.812C74.9671 147.597 74.9671 127.537 74.9671 107.219C77.1259 107.219 79.1805 107.219 81.3718 107.219C81.3718 127.4 81.3718 147.526 81.3718 167.812Z" fill="black"/>
<path d="M88.9746 167.934C82.9905 168.44 82.994 168.44 82.9929 162.713C82.9917 145.338 82.9871 127.965 82.9836 110.59C82.9836 106.983 82.9847 106.98 86.5677 106.892C87.2839 106.875 88 106.89 88.9746 106.89C88.9746 127.314 88.9746 147.559 88.9746 167.934Z" fill="black"/>
<path d="M112.96 167.724C110.985 167.724 109.116 167.724 106.983 167.724C106.983 147.568 106.983 127.463 106.983 107.231C108.929 107.231 110.87 107.231 112.96 107.231C112.96 127.391 112.96 147.501 112.96 167.724Z" fill="black"/>
<path d="M73.1246 167.705C71.077 167.705 69.2102 167.705 67.1788 167.705C67.1788 147.584 67.1788 127.487 67.1788 107.241C69.1951 107.241 71.121 107.241 73.1246 107.241C73.1246 127.383 73.1246 147.479 73.1246 167.705Z" fill="black"/>
<path d="M91.1056 107.065C91.5529 106.961 91.7568 106.873 91.9619 106.873C97.0375 106.88 97.049 106.881 97.0502 111.94C97.056 129.767 97.0143 147.595 97.1047 165.42C97.1163 167.586 96.4221 168.277 94.3919 168.069C93.327 167.96 92.2424 168.05 91.1044 168.05C91.1056 147.576 91.1056 127.308 91.1056 107.065Z" fill="black"/>
<path d="M85.7462 92.1381C86.1413 91.1845 86.4577 90.4208 86.9328 89.2759C87.6385 91.2586 87.7741 93.1845 90.0627 93.1672C92.3061 93.1498 92.6085 91.393 93.0245 89.0106C94.4881 93.8647 98.2878 92.5263 101.094 93.0652C107.737 94.341 114.46 95.1916 121.152 96.2078C123.124 96.5068 124.23 97.5926 124.489 99.9901C121.373 96.669 117.375 97.3643 113.813 96.7942C107.267 95.7466 100.653 95.1186 94.064 94.3503C93.4603 94.2796 92.7314 94.2865 92.2261 94.5612C90.8066 95.3318 89.4856 95.3271 88.0695 94.5878C87.5979 94.341 86.9675 94.2217 86.4403 94.2854C77.6126 95.3642 68.7814 96.421 59.9746 97.6482C58.4983 97.8545 57.1298 98.8325 55.6882 99.464C55.8273 97.4663 57.1634 96.4489 59.1368 96.1441C65.7616 95.1186 72.3922 94.1394 79.0217 93.1428C81.2512 92.8091 83.4831 92.4765 85.7462 92.1381Z" fill="black"/>
<path d="M172.276 77.7286C172.276 79.293 172.276 80.6233 172.276 82.0996C168.929 82.0996 165.593 82.1448 162.261 82.0532C161.731 82.0393 161.062 81.526 160.719 81.0543C154.206 72.0783 147.732 63.0745 141.256 54.073C141.139 53.9108 141.098 53.6941 140.937 53.2908C143.2 53.1842 145.347 53.0567 147.498 52.9872C153.992 52.7786 160.487 52.5434 166.983 52.4206C170.226 52.3591 172.091 52.8539 172.133 57.1415C172.19 62.9065 172.508 68.6691 172.704 74.433C172.711 74.623 172.615 74.8177 172.025 75.1433C171.828 74.4341 171.497 73.7308 171.456 73.0123C171.155 67.5463 170.866 62.0791 170.675 56.6084C170.616 54.9351 169.979 54.0139 168.064 53.8134C168.448 54.3546 168.737 54.7613 169.038 55.1854C165.006 56.3778 165.042 56.3859 165.149 60.6457C165.296 66.4848 165.344 72.3263 165.492 78.1655C165.556 80.6638 168.608 82.4993 170.637 81.1111C171.47 80.5433 171.673 79.0485 172.276 77.7286ZM149.198 59.7406C150.531 55.0383 154.374 56.35 157.752 56.0997C157.752 61.3792 157.752 66.5207 157.752 71.8141C156.997 71.6113 156.354 71.4398 155.3 71.1582C156.912 73.2406 158.255 74.9753 159.598 76.71C159.758 76.6544 159.918 76.5999 160.078 76.5443C160.078 69.0933 160.078 61.6422 160.078 53.9467C156.489 54.1506 152.89 54.3557 149.198 54.5655C149.198 56.43 149.198 58.0847 149.198 59.7406Z" fill="black"/>
<path d="M7.7907 82.1216C7.7907 80.5792 7.7907 79.2779 7.7907 77.9754C7.87529 77.9557 7.96103 77.9372 8.04562 77.9175C8.14412 78.2002 8.2994 78.476 8.33068 78.7657C8.5497 80.8063 9.5706 81.6326 11.6808 81.3313C13.7956 81.0288 14.6357 80.045 14.6392 77.8584C14.6484 71.434 14.7898 65.0085 14.9903 58.5876C15.0783 55.759 12.879 55.9027 11.0365 55.2515C11.3598 54.8053 11.668 54.3801 12.0666 53.8296C10.2635 53.9803 9.5115 54.803 9.44892 56.4972C9.24961 61.8948 8.97846 67.289 8.68876 72.6832C8.64473 73.4978 8.34922 74.2997 8.17077 75.1074C7.95639 75.0692 7.74318 75.0298 7.52881 74.9915C7.52881 73.2892 7.48708 71.5858 7.53691 69.8847C7.66206 65.5798 7.8127 61.2749 7.98189 56.9711C8.12326 53.351 9.13605 52.3336 12.8372 52.4171C19.9163 52.577 26.993 52.8528 34.071 53.059C35.7269 53.1065 37.3851 53.066 39.5405 53.066C37.8139 55.5203 36.4268 57.5355 34.9968 59.5205C29.9202 66.5625 24.8006 73.572 19.7738 80.6499C18.9985 81.7415 18.1885 82.1691 16.8965 82.1401C13.9195 82.0764 10.9391 82.1216 7.7907 82.1216ZM22.388 56.2921C24.3023 56.2921 26.161 55.839 27.5979 56.4242C28.9375 56.97 29.8275 58.6178 30.9306 59.7963C30.9306 58.1067 30.9306 56.4508 30.9306 54.5701C27.2341 54.3592 23.6314 54.1529 20.0762 53.949C20.0762 61.6666 20.0762 69.1199 20.0762 76.5733C20.2326 76.6104 20.3879 76.6486 20.5444 76.6857C21.8666 74.9475 23.1899 73.2093 24.9142 70.9415C23.7079 71.4004 23.1401 71.6171 22.3892 71.9033C22.388 66.5613 22.388 61.4209 22.388 56.2921Z" fill="black"/>
<path d="M24.5816 105.686C23.7565 104.41 22.7878 103.56 22.9164 102.938C23.0589 102.25 24.1726 101.386 24.9235 101.324C25.4565 101.28 26.5909 102.472 26.5516 103.052C26.4994 103.797 25.5434 104.48 24.5816 105.686Z" fill="black"/>
<path d="M27.4241 113.01C26.1795 113.919 25.3788 114.948 24.7056 114.871C23.9964 114.79 23.4089 113.651 22.7681 112.973C23.4657 112.373 24.1076 111.41 24.8794 111.291C25.4785 111.199 26.2398 112.161 27.4241 113.01Z" fill="black"/>
<path d="M24.6071 115.421C25.5863 116.668 26.6315 117.436 26.5399 118.028C26.431 118.734 25.4055 119.668 24.665 119.782C24.1308 119.866 22.9535 118.81 22.9025 118.192C22.8469 117.505 23.7403 116.739 24.6071 115.421Z" fill="black"/>
<path d="M27.5377 108.135C26.1657 109.003 25.3927 109.874 24.6569 109.843C24.008 109.817 23.3996 108.785 22.7727 108.198C23.4077 107.564 23.9941 106.5 24.6928 106.419C25.3788 106.342 26.1796 107.263 27.5377 108.135Z" fill="black"/>
<path d="M24.5364 125.224C23.7287 123.928 22.8631 123.147 22.9106 122.427C22.9489 121.838 24.1633 120.808 24.7033 120.898C25.4368 121.02 26.4971 121.993 26.5388 122.655C26.5794 123.31 25.526 124.032 24.5364 125.224Z" fill="black"/>
<path d="M27.4774 127.629C26.1309 128.47 25.2699 129.429 24.5978 129.312C23.8979 129.189 23.0508 128.083 22.9152 127.296C22.8411 126.864 24.1123 125.743 24.7531 125.762C25.4993 125.783 26.2189 126.71 27.4774 127.629Z" fill="black"/>
<path d="M155.271 105.731C154.443 104.443 153.556 103.666 153.588 102.928C153.613 102.319 154.818 101.214 155.334 101.302C156.087 101.431 157.168 102.393 157.223 103.071C157.277 103.743 156.231 104.504 155.271 105.731Z" fill="black"/>
<path d="M155.203 124.844C156.198 126.061 157.275 126.809 157.215 127.454C157.149 128.175 156.135 129.178 155.379 129.338C154.88 129.444 153.651 128.332 153.584 127.681C153.512 126.967 154.401 126.156 155.203 124.844Z" fill="black"/>
<path d="M155.241 120.716C154.417 119.417 153.46 118.563 153.592 117.94C153.736 117.261 154.866 116.409 155.611 116.365C156.154 116.333 157.26 117.515 157.225 118.102C157.182 118.831 156.221 119.505 155.241 120.716Z" fill="black"/>
<path d="M155.398 110.358C156.307 111.637 157.324 112.452 157.223 113.088C157.111 113.794 156.029 114.71 155.268 114.818C154.759 114.89 153.604 113.723 153.589 113.09C153.572 112.37 154.501 111.627 155.398 110.358Z" fill="black"/>
<path d="M155.368 105.457C156.3 106.716 157.328 107.514 157.224 108.118C157.105 108.813 156.035 109.703 155.282 109.806C154.76 109.878 153.603 108.774 153.587 108.172C153.568 107.464 154.475 106.731 155.368 105.457Z" fill="black"/>
<path d="M158.232 122.67C156.82 123.508 156.028 124.346 155.285 124.305C154.649 124.27 154.067 123.229 153.463 122.633C154.11 122.012 154.718 120.96 155.417 120.894C156.105 120.828 156.887 121.766 158.232 122.67Z" fill="black"/>
<path d="M24.8725 156.963C23.2374 156.963 21.5583 157.201 19.9777 156.909C17.4736 156.448 18.6892 154.392 18.3798 152.51C20.8086 153.992 22.8979 155.267 24.9872 156.542C24.9489 156.683 24.9107 156.823 24.8725 156.963Z" fill="black"/>
<path d="M40.8905 156.969C39.1766 156.969 37.457 157.065 35.7524 156.939C34.4047 156.838 34.1695 155.955 34.4835 152.64C36.72 153.988 38.8487 155.27 40.9774 156.553C40.9484 156.691 40.9194 156.83 40.8905 156.969Z" fill="black"/>
<path d="M145.662 152.634C145.888 157.337 145.703 157.454 138.792 156.915C141.274 155.368 143.336 154.084 145.662 152.634Z" fill="black"/>
<path d="M155.07 156.605C157.192 155.326 159.313 154.047 161.532 152.708C162.014 157.172 161.892 157.252 155.07 156.605Z" fill="black"/>
<path d="M149.198 59.7406C149.198 58.0847 149.198 56.43 149.198 54.5655C152.89 54.3557 156.488 54.1506 160.078 53.9467C160.078 61.6422 160.078 69.0933 160.078 76.5443C159.918 76.5999 159.758 76.6544 159.598 76.71C158.255 74.9753 156.912 73.2394 155.3 71.1582C156.354 71.4398 156.997 71.6125 157.752 71.8141C157.752 66.5196 157.752 61.3792 157.752 56.0997C154.373 56.3489 150.53 55.0371 149.198 59.7406Z" fill="white"/>
<path d="M22.388 56.2921C22.388 61.422 22.388 66.5625 22.388 71.9033C23.1389 71.6171 23.7079 71.4004 24.913 70.9415C23.1876 73.2081 21.8654 74.9475 20.5432 76.6857C20.3868 76.6486 20.2315 76.6104 20.0751 76.5733C20.0751 69.1199 20.0751 61.6666 20.0751 53.949C23.6303 54.1518 27.2329 54.358 30.9295 54.5701C30.9295 56.4508 30.9295 58.1067 30.9295 59.7963C29.8263 58.6178 28.9364 56.97 27.5968 56.4242C26.161 55.839 24.3023 56.2921 22.388 56.2921Z" fill="white"/>
</svg>
